<svg xmlns="http://www.w3.org/2000/svg" xmlns:xlink="http://www.w3.org/1999/xlink" width="500" zoomAndPan="magnify" viewBox="0 0 375 374.999991" height="500" preserveAspectRatio="xMidYMid meet" version="1.0"><defs><clipPath id="a2434facb6"><path d="M 0 168.535156 L 197.679688 168.535156 L 197.679688 375 L 0 375 Z M 0 168.535156 " clip-rule="nonzero"/></clipPath><clipPath id="e5ca02a953"><path d="M 197.679688 375 L 0 375 L 0 168.535156 Z M 197.679688 375 " clip-rule="nonzero"/></clipPath><clipPath id="010bee62da"><path d="M 0 0.535156 L 197.679688 0.535156 L 197.679688 207 L 0 207 Z M 0 0.535156 " clip-rule="nonzero"/></clipPath><clipPath id="0d25cf9c3b"><path d="M 197.679688 207 L 0 207 L 0 0.535156 Z M 197.679688 207 " clip-rule="nonzero"/></clipPath><clipPath id="744f3d3396"><rect x="0" width="198" y="0" height="207"/></clipPath><clipPath id="ff88014761"><path d="M 177.3125 0 L 374.992188 0 L 374.992188 206.460938 L 177.3125 206.460938 Z M 177.3125 0 " clip-rule="nonzero"/></clipPath><clipPath id="d4ac7b6e03"><path d="M 177.3125 -0.00390625 L 374.992188 -0.00390625 L 374.992188 206.460938 Z M 177.3125 -0.00390625 " clip-rule="nonzero"/></clipPath><clipPath id="55bbbd36bc"><path d="M 0.3125 0 L 197.992188 0 L 197.992188 206.460938 L 0.3125 206.460938 Z M 0.3125 0 " clip-rule="nonzero"/></clipPath><clipPath id="77c26257d4"><path d="M 0.3125 -0.00390625 L 197.992188 -0.00390625 L 197.992188 206.460938 Z M 0.3125 -0.00390625 " clip-rule="nonzero"/></clipPath><clipPath id="90bf221a35"><rect x="0" width="198" y="0" height="207"/></clipPath></defs><rect x="-37.5" width="450" fill="#ffffff" y="-37.499999" height="449.999989" fill-opacity="1"/><rect x="-37.5" width="450" fill="#ffffff" y="-37.499999" height="449.999989" fill-opacity="1"/><g clip-path="url(#a2434facb6)"><g clip-path="url(#e5ca02a953)"><g transform="matrix(1, 0, 0, 1, 0, 168)"><g clip-path="url(#744f3d3396)"><g clip-path="url(#010bee62da)"><g clip-path="url(#0d25cf9c3b)"><path fill="#000000" d="M 0 0.535156 L 197.679688 0.535156 L 197.679688 206.707031 L 0 206.707031 Z M 0 0.535156 " fill-opacity="1" fill-rule="nonzero"/></g></g></g></g></g></g><g clip-path="url(#ff88014761)"><g clip-path="url(#d4ac7b6e03)"><g transform="matrix(1, 0, 0, 1, 177, 0)"><g clip-path="url(#90bf221a35)"><g clip-path="url(#55bbbd36bc)"><g clip-path="url(#77c26257d4)"><path fill="#000000" d="M 197.992188 206.460938 L 0.3125 206.460938 L 0.3125 0.289062 L 197.992188 0.289062 Z M 197.992188 206.460938 " fill-opacity="1" fill-rule="nonzero"/></g></g></g></g></g></g></svg>