<svg xmlns="http://www.w3.org/2000/svg" xmlns:xlink="http://www.w3.org/1999/xlink" width="500" zoomAndPan="magnify" viewBox="0 0 375 374.999991" height="500" preserveAspectRatio="xMidYMid meet" version="1.0"><defs><clipPath id="a4a1cafa6f"><path d="M 0 0 L 206.464844 0 L 206.464844 197.679688 L 0 197.679688 Z M 0 0 " clip-rule="nonzero"/></clipPath><clipPath id="c20090ab0f"><path d="M 0 197.679688 L 0 0 L 206.464844 0 Z M 0 197.679688 " clip-rule="nonzero"/></clipPath><clipPath id="e71bb3241c"><path d="M 0 0 L 206.464844 0 L 206.464844 197.679688 L 0 197.679688 Z M 0 0 " clip-rule="nonzero"/></clipPath><clipPath id="18fb04fb20"><path d="M 0 197.679688 L 0 0 L 206.464844 0 Z M 0 197.679688 " clip-rule="nonzero"/></clipPath><clipPath id="f4f6a18377"><rect x="0" width="207" y="0" height="198"/></clipPath><clipPath id="3fca2709f9"><path d="M 168.539062 177.3125 L 375 177.3125 L 375 374.992188 L 168.539062 374.992188 Z M 168.539062 177.3125 " clip-rule="nonzero"/></clipPath><clipPath id="b34048f676"><path d="M 375.003906 177.3125 L 375.003906 374.992188 L 168.539062 374.992188 Z M 375.003906 177.3125 " clip-rule="nonzero"/></clipPath><clipPath id="8590640973"><path d="M 0.539062 0.3125 L 207 0.3125 L 207 197.992188 L 0.539062 197.992188 Z M 0.539062 0.3125 " clip-rule="nonzero"/></clipPath><clipPath id="0bca012b68"><path d="M 207.003906 0.3125 L 207.003906 197.992188 L 0.539062 197.992188 Z M 207.003906 0.3125 " clip-rule="nonzero"/></clipPath><clipPath id="d6c0b5fbeb"><rect x="0" width="207" y="0" height="198"/></clipPath></defs><rect x="-37.5" width="450" fill="#ffffff" y="-37.499999" height="449.999989" fill-opacity="1"/><rect x="-37.5" width="450" fill="#ffffff" y="-37.499999" height="449.999989" fill-opacity="1"/><g clip-path="url(#a4a1cafa6f)"><g clip-path="url(#c20090ab0f)"><g transform="matrix(1, 0, 0, 1, 0, 0)"><g clip-path="url(#f4f6a18377)"><g clip-path="url(#e71bb3241c)"><g clip-path="url(#18fb04fb20)"><path fill="#000000" d="M 206.464844 0 L 206.464844 197.679688 L 0.292969 197.679688 L 0.292969 0 Z M 206.464844 0 " fill-opacity="1" fill-rule="nonzero"/></g></g></g></g></g></g><g clip-path="url(#3fca2709f9)"><g clip-path="url(#b34048f676)"><g transform="matrix(1, 0, 0, 1, 168, 177)"><g clip-path="url(#d6c0b5fbeb)"><g clip-path="url(#8590640973)"><g clip-path="url(#0bca012b68)"><path fill="#000000" d="M 0.539062 197.992188 L 0.539062 0.3125 L 206.710938 0.3125 L 206.710938 197.992188 Z M 0.539062 197.992188 " fill-opacity="1" fill-rule="nonzero"/></g></g></g></g></g></g></svg>