<svg xmlns="http://www.w3.org/2000/svg" xmlns:xlink="http://www.w3.org/1999/xlink" width="500" zoomAndPan="magnify" viewBox="0 0 375 374.999991" height="500" preserveAspectRatio="xMidYMid meet" version="1.0"><defs><clipPath id="6d7a55f61e"><path d="M 0 0 L 237 0 L 237 237 L 0 237 Z M 0 0 " clip-rule="nonzero"/></clipPath><clipPath id="86e9c56391"><path d="M 103.792969 -161.375 L 236.375 -28.792969 L -28.792969 236.375 L -161.375 103.792969 Z M 103.792969 -161.375 " clip-rule="nonzero"/></clipPath><clipPath id="baa9bee75e"><path d="M 0 0 L 236.398438 0 L 236.398438 236.398438 L 0 236.398438 Z M 0 0 " clip-rule="nonzero"/></clipPath><clipPath id="37c5a7693e"><path d="M 103.792969 -161.375 L 236.375 -28.792969 L -28.792969 236.375 L -161.375 103.792969 Z M 103.792969 -161.375 " clip-rule="nonzero"/></clipPath><clipPath id="6114513932"><rect x="0" width="237" y="0" height="237"/></clipPath><clipPath id="534a748c3e"><path d="M 0 160 L 237 160 L 237 375 L 0 375 Z M 0 160 " clip-rule="nonzero"/></clipPath><clipPath id="6795b00a66"><path d="M -161.375 293.210938 L -28.792969 160.628906 L 236.375 425.796875 L 103.792969 558.378906 Z M -161.375 293.210938 " clip-rule="nonzero"/></clipPath><clipPath id="6df7772388"><path d="M 0 0.558594 L 236.398438 0.558594 L 236.398438 215 L 0 215 Z M 0 0.558594 " clip-rule="nonzero"/></clipPath><clipPath id="40c569fd19"><path d="M -161.375 133.210938 L -28.792969 0.628906 L 236.375 265.796875 L 103.792969 398.378906 Z M -161.375 133.210938 " clip-rule="nonzero"/></clipPath><clipPath id="b2f3e9fa15"><rect x="0" width="237" y="0" height="215"/></clipPath></defs><rect x="-37.5" width="450" fill="#ffffff" y="-37.499999" height="449.999989" fill-opacity="1"/><rect x="-37.5" width="450" fill="#ffffff" y="-37.499999" height="449.999989" fill-opacity="1"/><g clip-path="url(#6d7a55f61e)"><g clip-path="url(#86e9c56391)"><g transform="matrix(1, 0, 0, 1, 0, 0)"><g clip-path="url(#6114513932)"><g clip-path="url(#baa9bee75e)"><g clip-path="url(#37c5a7693e)"><path fill="#000000" d="M 103.792969 -161.375 L 236.375 -28.792969 L -28.792969 236.375 L -161.375 103.792969 Z M 103.792969 -161.375 " fill-opacity="1" fill-rule="nonzero"/></g></g></g></g></g></g><g clip-path="url(#534a748c3e)"><g clip-path="url(#6795b00a66)"><g transform="matrix(1, 0, 0, 1, 0, 160)"><g clip-path="url(#b2f3e9fa15)"><g clip-path="url(#6df7772388)"><g clip-path="url(#40c569fd19)"><path fill="#000000" d="M -161.375 133.210938 L -28.792969 0.628906 L 236.375 265.796875 L 103.792969 398.378906 Z M -161.375 133.210938 " fill-opacity="1" fill-rule="nonzero"/></g></g></g></g></g></g></svg>