<svg xmlns="http://www.w3.org/2000/svg" xmlns:xlink="http://www.w3.org/1999/xlink" width="500" zoomAndPan="magnify" viewBox="0 0 375 374.999991" height="500" preserveAspectRatio="xMidYMid meet" version="1.0"><defs><clipPath id="a73da89300"><path d="M 138 149 L 375 149 L 375 375 L 138 375 Z M 138 149 " clip-rule="nonzero"/></clipPath><clipPath id="375baa3bf0"><path d="M 271.207031 547.367188 L 138.625 414.785156 L 403.789062 149.617188 L 536.371094 282.203125 Z M 271.207031 547.367188 " clip-rule="nonzero"/></clipPath><clipPath id="04790c9ab8"><path d="M 0.480469 0.519531 L 237 0.519531 L 237 226 L 0.480469 226 Z M 0.480469 0.519531 " clip-rule="nonzero"/></clipPath><clipPath id="a2d194a0bb"><path d="M 133.207031 398.367188 L 0.625 265.785156 L 265.789062 0.617188 L 398.371094 133.203125 Z M 133.207031 398.367188 " clip-rule="nonzero"/></clipPath><clipPath id="6360005653"><rect x="0" width="237" y="0" height="226"/></clipPath><clipPath id="d917b3a410"><path d="M 138 0 L 375 0 L 375 226 L 138 226 Z M 138 0 " clip-rule="nonzero"/></clipPath><clipPath id="539fb0e5c9"><path d="M 536.371094 92.78125 L 403.789062 225.363281 L 138.625 -39.804688 L 271.207031 -172.386719 Z M 536.371094 92.78125 " clip-rule="nonzero"/></clipPath><clipPath id="cda847bb9e"><path d="M 0.480469 0 L 237 0 L 237 225.601562 L 0.480469 225.601562 Z M 0.480469 0 " clip-rule="nonzero"/></clipPath><clipPath id="633f2a96b4"><path d="M 398.371094 92.78125 L 265.789062 225.363281 L 0.625 -39.804688 L 133.207031 -172.386719 Z M 398.371094 92.78125 " clip-rule="nonzero"/></clipPath><clipPath id="d03d8190bc"><rect x="0" width="237" y="0" height="226"/></clipPath><clipPath id="4ffceff4ef"><path d="M 177.496094 4 L 181.246094 4 L 181.246094 372 L 177.496094 372 Z M 177.496094 4 " clip-rule="nonzero"/></clipPath></defs><rect x="-37.5" width="450" fill="#ffffff" y="-37.499999" height="449.999989" fill-opacity="1"/><rect x="-37.5" width="450" fill="#ffffff" y="-37.499999" height="449.999989" fill-opacity="1"/><g clip-path="url(#a73da89300)"><g clip-path="url(#375baa3bf0)"><g transform="matrix(1, 0, 0, 1, 138, 149)"><g clip-path="url(#6360005653)"><g clip-path="url(#04790c9ab8)"><g clip-path="url(#a2d194a0bb)"><path fill="#000000" d="M 133.207031 398.367188 L 0.625 265.785156 L 265.789062 0.617188 L 398.371094 133.203125 Z M 133.207031 398.367188 " fill-opacity="1" fill-rule="nonzero"/></g></g></g></g></g></g><g clip-path="url(#d917b3a410)"><g clip-path="url(#539fb0e5c9)"><g transform="matrix(1, 0, 0, 1, 138, 0)"><g clip-path="url(#d03d8190bc)"><g clip-path="url(#cda847bb9e)"><g clip-path="url(#633f2a96b4)"><path fill="#000000" d="M 398.371094 92.78125 L 265.789062 225.363281 L 0.625 -39.804688 L 133.207031 -172.386719 Z M 398.371094 92.78125 " fill-opacity="1" fill-rule="nonzero"/></g></g></g></g></g></g><g clip-path="url(#4ffceff4ef)"><path fill="#000000" d="M 177.511719 371.648438 L 177.511719 4.734375 C 177.84375 4.636719 178.191406 4.375 178.296875 4.351562 C 178.636719 4.28125 179.007812 4.585938 179.320312 4.496094 C 180.109375 4.269531 180.132812 4.425781 180.746094 4.929688 C 180.917969 5.070312 181.078125 5.113281 181.230469 5.085938 L 181.230469 371.425781 C 181.175781 371.480469 181.117188 371.535156 181.054688 371.582031 C 180.714844 371.84375 180.375 371.773438 180.152344 371.605469 C 179.695312 371.261719 179.621094 371.214844 179.132812 371.523438 C 178.699219 371.792969 178.40625 370.90625 177.835938 371.429688 C 177.8125 371.449219 177.675781 371.578125 177.511719 371.648438 Z M 177.511719 371.648438 " fill-opacity="1" fill-rule="evenodd"/></g></svg>