<svg xmlns="http://www.w3.org/2000/svg" xmlns:xlink="http://www.w3.org/1999/xlink" width="500" zoomAndPan="magnify" viewBox="0 0 375 374.999991" height="500" preserveAspectRatio="xMidYMid meet" version="1.0"><defs><clipPath id="a0b339b8fc"><path d="M 190.074219 0.00390625 L 374.996094 184.925781 L 184.921875 375.003906 L -0.00390625 190.078125 Z M 190.074219 0.00390625 " clip-rule="nonzero"/></clipPath><clipPath id="681ef746cc"><path d="M 0 0 L 375 0 L 375 375 L 0 375 Z M 0 0 " clip-rule="nonzero"/></clipPath><clipPath id="aeb0b89238"><path d="M 190.074219 0.00390625 L 374.996094 184.925781 L 184.921875 375.003906 L -0.00390625 190.078125 Z M 190.074219 0.00390625 " clip-rule="nonzero"/></clipPath><clipPath id="fcc282df5f"><rect x="0" width="375" y="0" height="375"/></clipPath><clipPath id="0cbcfe1ec8"><path d="M 112.5 112.5 L 262.5 112.5 L 262.5 262.5 L 112.5 262.5 Z M 112.5 112.5 " clip-rule="nonzero"/></clipPath></defs><rect x="-37.5" width="450" fill="#ffffff" y="-37.499999" height="449.999989" fill-opacity="1"/><rect x="-37.5" width="450" fill="#ffffff" y="-37.499999" height="449.999989" fill-opacity="1"/><g clip-path="url(#a0b339b8fc)"><g transform="matrix(1, 0, 0, 1, 0, 0)"><g clip-path="url(#fcc282df5f)"><g clip-path="url(#681ef746cc)"><g clip-path="url(#aeb0b89238)"><path fill="#000000" d="M 190.074219 0.00390625 L 374.996094 184.925781 L 185.015625 374.90625 L 0.09375 189.984375 Z M 190.074219 0.00390625 " fill-opacity="1" fill-rule="nonzero"/></g></g></g></g></g><g clip-path="url(#0cbcfe1ec8)"><path stroke-linecap="butt" transform="matrix(0.294002, 0, 0, 0.294002, 112.499997, 112.529393)" fill="none" stroke-linejoin="miter" d="M 504.686163 255.000043 C 504.686163 259.078986 504.593158 263.157929 504.393861 267.236872 C 504.194564 271.315815 503.888975 275.394758 503.490381 279.460414 C 503.091788 283.512784 502.586902 287.565154 501.989012 291.604238 C 501.391121 295.643321 500.686939 299.669119 499.889751 303.681629 C 499.092563 307.680853 498.202371 311.666791 497.205886 315.626156 C 496.222688 319.585521 495.133199 323.518313 493.950704 327.424532 C 492.754922 331.330751 491.479422 335.210397 490.097631 339.050184 C 488.729125 342.903257 487.254328 346.703184 485.686526 350.476539 C 484.13201 354.249893 482.471203 357.983388 480.730677 361.677024 C 478.976864 365.370659 477.143333 369.011149 475.216796 372.61178 C 473.29026 376.21241 471.284004 379.759895 469.184744 383.26752 C 467.085483 386.775145 464.893217 390.216338 462.621233 393.617672 C 460.362535 397.005719 458.010832 400.34062 455.57941 403.622375 C 453.134701 406.904131 450.62356 410.119454 448.032701 413.281631 C 445.441841 416.443809 442.771263 419.526267 440.034252 422.55558 C 437.297242 425.584892 434.480512 428.534486 431.584064 431.417648 C 428.700903 434.314096 425.738022 437.130826 422.708709 439.867836 C 419.692683 442.604847 416.596938 445.275425 413.434761 447.866285 C 410.28587 450.457144 407.057261 452.968285 403.775505 455.399707 C 400.49375 457.831129 397.158848 460.182832 393.757515 462.454817 C 390.369468 464.713515 386.914988 466.905781 383.407363 469.005041 C 379.913024 471.104302 376.352253 473.110557 372.751623 475.037094 C 369.150992 476.96363 365.510503 478.797162 361.816867 480.550974 C 358.123231 482.2915 354.389736 483.939021 350.616382 485.506823 C 346.843027 487.074626 343.029814 488.536136 339.17674 489.917928 C 335.336954 491.286433 331.457308 492.57522 327.551089 493.757715 C 323.64487 494.94021 319.698791 496.029699 315.739426 497.026184 C 311.780062 498.009382 307.794124 498.912861 303.7949 499.710048 C 299.782389 500.507236 295.756592 501.198132 291.717508 501.796022 C 287.678425 502.393913 283.626055 502.898799 279.560398 503.297392 C 275.494741 503.695986 271.429085 504.001575 267.336856 504.200872 C 263.257913 504.400168 259.17897 504.50646 255.100027 504.50646 C 251.007797 504.50646 246.928854 504.400168 242.849911 504.200872 C 238.770968 504.001575 234.692025 503.695986 230.626369 503.297392 C 226.560712 502.898799 222.508342 502.393913 218.469259 501.796022 C 214.430175 501.198132 210.404378 500.507236 206.405154 499.710048 C 202.392643 498.912861 198.406705 498.009382 194.44734 497.026184 C 190.487975 496.029699 186.555184 494.94021 182.635678 493.757715 C 178.729459 492.57522 174.849813 491.286433 171.010026 489.917928 C 167.156953 488.536136 163.357026 487.074626 159.583671 485.506823 C 155.810317 483.939021 152.076822 482.2915 148.383186 480.550974 C 144.689551 478.797162 141.035774 476.96363 137.435144 475.037094 C 133.834513 473.110557 130.287029 471.104302 126.779404 469.005041 C 123.271778 466.905781 119.830585 464.713515 116.429252 462.454817 C 113.027918 460.182832 109.693017 457.831129 106.411262 455.399707 C 103.129506 452.968285 99.914183 450.457144 96.752006 447.866285 C 93.589828 445.275425 90.50737 442.604847 87.478057 439.867836 C 84.448745 437.130826 81.499151 434.314096 78.602702 431.417648 C 75.719541 428.534486 72.902811 425.584892 70.152514 422.55558 C 67.415504 419.526267 64.744926 416.443809 62.154066 413.281631 C 59.563206 410.119454 57.052066 406.904131 54.620644 403.622375 C 52.189222 400.34062 49.837518 397.005719 47.565534 393.617672 C 45.293549 390.216338 43.11457 386.775145 41.015309 383.26752 C 38.916049 379.759895 36.896507 376.21241 34.96997 372.61178 C 33.043434 369.011149 31.209902 365.370659 29.469376 361.677024 C 27.715564 357.983388 26.068043 354.249893 24.500241 350.476539 C 22.932438 346.703184 21.470928 342.903257 20.089136 339.050184 C 18.720631 335.210397 17.431844 331.330751 16.249349 327.424532 C 15.066855 323.518313 13.977365 319.585521 12.98088 315.626156 C 11.984396 311.666791 11.094203 307.680853 10.297016 303.681629 C 9.499828 299.669119 8.795646 295.643321 8.197755 291.604238 C 7.599864 287.565154 7.108265 283.512784 6.696385 279.460414 C 6.297791 275.394758 6.005489 271.315815 5.806192 267.236872 C 5.593609 263.157929 5.500604 259.078986 5.500604 255.000043 C 5.500604 250.9211 5.593609 246.842157 5.806192 242.763214 C 6.005489 238.684271 6.297791 234.605328 6.696385 230.539671 C 7.108265 226.487301 7.599864 222.434931 8.197755 218.395848 C 8.795646 214.356764 9.499828 210.330967 10.297016 206.318456 C 11.094203 202.319232 11.984396 198.333294 12.98088 194.373929 C 13.977365 190.414564 15.066855 186.481773 16.249349 182.575554 C 17.431844 178.669335 18.720631 174.789688 20.089136 170.949902 C 21.470928 167.096829 22.932438 163.296901 24.500241 159.523547 C 26.068043 155.750192 27.715564 152.016697 29.469376 148.323062 C 31.209902 144.629426 33.043434 140.988936 34.96997 137.388306 C 36.896507 133.787675 38.916049 130.240191 41.015309 126.732566 C 43.11457 123.22494 45.293549 119.783747 47.565534 116.382414 C 49.837518 112.994367 52.189222 109.646179 54.620644 106.37771 C 57.052066 103.095955 59.563206 99.880631 62.154066 96.718454 C 64.744926 93.556277 67.415504 90.473818 70.152514 87.444506 C 72.902811 84.415193 75.719541 81.465599 78.602702 78.582437 C 81.499151 75.685989 84.448745 72.86926 87.478057 70.132249 C 90.50737 67.395239 93.589828 64.72466 96.752006 62.133801 C 99.914183 59.542941 103.129506 57.031801 106.411262 54.600378 C 109.693017 52.168956 113.027918 49.817253 116.429252 47.545269 C 119.830585 45.273284 123.271778 43.094305 126.779404 40.995044 C 130.287029 38.895784 133.834513 36.889528 137.435144 34.962992 C 141.035774 33.036455 144.689551 31.202924 148.383186 29.449111 C 152.076822 27.708585 155.810317 26.061064 159.583671 24.493262 C 163.357026 22.92546 167.156953 21.463949 171.010026 20.082157 C 174.849813 18.713652 178.729459 17.424866 182.635678 16.242371 C 186.555184 15.059876 190.487975 13.970386 194.44734 12.973902 C 198.406705 11.990704 202.392643 11.087225 206.405154 10.290037 C 210.404378 9.492849 214.430175 8.801954 218.469259 8.204063 C 222.508342 7.606172 226.560712 7.101287 230.626369 6.702693 C 234.692025 6.304099 238.770968 5.998511 242.849911 5.799214 C 246.928854 5.599917 251.007797 5.493625 255.100027 5.493625 C 259.17897 5.493625 263.257913 5.599917 267.336856 5.799214 C 271.429085 5.998511 275.494741 6.304099 279.560398 6.702693 C 283.626055 7.101287 287.678425 7.606172 291.717508 8.204063 C 295.756592 8.801954 299.782389 9.492849 303.7949 10.290037 C 307.794124 11.087225 311.780062 11.990704 315.739426 12.973902 C 319.698791 13.970386 323.64487 15.059876 327.551089 16.242371 C 331.457308 17.424866 335.336954 18.713652 339.17674 20.082157 C 343.029814 21.463949 346.843027 22.92546 350.616382 24.493262 C 354.389736 26.061064 358.123231 27.708585 361.816867 29.449111 C 365.510503 31.202924 369.150992 33.036455 372.751623 34.962992 C 376.352253 36.889528 379.913024 38.895784 383.407363 40.995044 C 386.914988 43.094305 390.369468 45.273284 393.757515 47.545269 C 397.158848 49.817253 400.49375 52.168956 403.775505 54.600378 C 407.057261 57.031801 410.28587 59.542941 413.434761 62.133801 C 416.596938 64.72466 419.692683 67.395239 422.708709 70.132249 C 425.738022 72.86926 428.700903 75.685989 431.584064 78.582437 C 434.480512 81.465599 437.297242 84.415193 440.034252 87.444506 C 442.771263 90.473818 445.441841 93.556277 448.032701 96.718454 C 450.62356 99.880631 453.134701 103.095955 455.57941 106.37771 C 458.010832 109.646179 460.362535 112.994367 462.621233 116.382414 C 464.893217 119.783747 467.085483 123.22494 469.184744 126.732566 C 471.284004 130.240191 473.29026 133.787675 475.216796 137.388306 C 477.143333 140.988936 478.976864 144.629426 480.730677 148.323062 C 482.471203 152.016697 484.13201 155.750192 485.686526 159.523547 C 487.254328 163.296901 488.729125 167.096829 490.097631 170.949902 C 491.479422 174.789688 492.754922 178.669335 493.950704 182.575554 C 495.133199 186.481773 496.222688 190.414564 497.205886 194.373929 C 498.202371 198.333294 499.092563 202.319232 499.889751 206.318456 C 500.686939 210.330967 501.391121 214.356764 501.989012 218.395848 C 502.586902 222.434931 503.091788 226.487301 503.490381 230.539671 C 503.888975 234.605328 504.194564 238.684271 504.393861 242.763214 C 504.593158 246.842157 504.686163 250.9211 504.686163 255.000043 Z M 504.686163 255.000043 " stroke="#000000" stroke-width="11" stroke-opacity="1" stroke-miterlimit="10"/><path fill="#ffffff" d="M 262.5 187.5 C 262.5 188.726562 262.46875 189.953125 262.410156 191.179688 C 262.347656 192.40625 262.257812 193.628906 262.140625 194.851562 C 262.019531 196.074219 261.867188 197.289062 261.6875 198.503906 C 261.507812 199.71875 261.296875 200.929688 261.058594 202.132812 C 260.820312 203.335938 260.550781 204.53125 260.253906 205.722656 C 259.953125 206.914062 259.625 208.097656 259.269531 209.269531 C 258.914062 210.445312 258.53125 211.609375 258.117188 212.765625 C 257.703125 213.921875 257.261719 215.066406 256.789062 216.203125 C 256.320312 217.335938 255.824219 218.457031 255.300781 219.566406 C 254.773438 220.675781 254.222656 221.773438 253.644531 222.855469 C 253.066406 223.9375 252.460938 225.003906 251.828125 226.058594 C 251.199219 227.109375 250.542969 228.148438 249.859375 229.167969 C 249.179688 230.1875 248.472656 231.191406 247.742188 232.175781 C 247.007812 233.164062 246.253906 234.128906 245.476562 235.078125 C 244.695312 236.027344 243.894531 236.957031 243.070312 237.867188 C 242.246094 238.777344 241.402344 239.664062 240.53125 240.53125 C 239.664062 241.402344 238.777344 242.246094 237.867188 243.070312 C 236.957031 243.894531 236.027344 244.695312 235.078125 245.476562 C 234.128906 246.253906 233.164062 247.007812 232.175781 247.742188 C 231.191406 248.472656 230.1875 249.179688 229.167969 249.859375 C 228.148438 250.542969 227.109375 251.199219 226.058594 251.828125 C 225.003906 252.460938 223.9375 253.066406 222.855469 253.644531 C 221.773438 254.222656 220.675781 254.773438 219.566406 255.300781 C 218.457031 255.824219 217.335938 256.320312 216.203125 256.789062 C 215.066406 257.261719 213.921875 257.703125 212.765625 258.117188 C 211.609375 258.53125 210.445312 258.914062 209.269531 259.269531 C 208.097656 259.625 206.914062 259.953125 205.722656 260.253906 C 204.53125 260.550781 203.335938 260.820312 202.132812 261.058594 C 200.929688 261.296875 199.71875 261.507812 198.503906 261.6875 C 197.289062 261.867188 196.074219 262.019531 194.851562 262.140625 C 193.628906 262.257812 192.40625 262.347656 191.179688 262.410156 C 189.953125 262.46875 188.726562 262.5 187.5 262.5 C 186.273438 262.5 185.046875 262.46875 183.820312 262.410156 C 182.59375 262.347656 181.371094 262.257812 180.148438 262.140625 C 178.925781 262.019531 177.710938 261.867188 176.496094 261.6875 C 175.28125 261.507812 174.070312 261.296875 172.867188 261.058594 C 171.664062 260.820312 170.46875 260.550781 169.277344 260.253906 C 168.085938 259.953125 166.902344 259.625 165.730469 259.269531 C 164.554688 258.914062 163.390625 258.53125 162.234375 258.117188 C 161.078125 257.703125 159.933594 257.261719 158.796875 256.789062 C 157.664062 256.320312 156.542969 255.824219 155.433594 255.300781 C 154.324219 254.773438 153.226562 254.222656 152.144531 253.644531 C 151.0625 253.066406 149.996094 252.460938 148.941406 251.828125 C 147.890625 251.199219 146.851562 250.542969 145.832031 249.859375 C 144.8125 249.179688 143.808594 248.472656 142.824219 247.742188 C 141.835938 247.007812 140.871094 246.253906 139.921875 245.476562 C 138.972656 244.695312 138.042969 243.894531 137.132812 243.070312 C 136.222656 242.246094 135.335938 241.402344 134.46875 240.53125 C 133.597656 239.664062 132.753906 238.777344 131.929688 237.867188 C 131.105469 236.957031 130.304688 236.027344 129.523438 235.078125 C 128.746094 234.128906 127.992188 233.164062 127.257812 232.175781 C 126.527344 231.191406 125.820312 230.1875 125.140625 229.167969 C 124.457031 228.148438 123.800781 227.109375 123.171875 226.058594 C 122.539062 225.003906 121.933594 223.9375 121.355469 222.855469 C 120.777344 221.773438 120.226562 220.675781 119.699219 219.566406 C 119.175781 218.457031 118.679688 217.335938 118.210938 216.203125 C 117.738281 215.066406 117.296875 213.921875 116.882812 212.765625 C 116.46875 211.609375 116.085938 210.445312 115.730469 209.269531 C 115.375 208.097656 115.046875 206.914062 114.746094 205.722656 C 114.449219 204.53125 114.179688 203.335938 113.941406 202.132812 C 113.703125 200.929688 113.492188 199.71875 113.3125 198.503906 C 113.132812 197.289062 112.980469 196.074219 112.859375 194.851562 C 112.742188 193.628906 112.652344 192.40625 112.589844 191.179688 C 112.53125 189.953125 112.5 188.726562 112.5 187.5 C 112.5 186.273438 112.53125 185.046875 112.589844 183.820312 C 112.652344 182.59375 112.742188 181.371094 112.859375 180.148438 C 112.980469 178.925781 113.132812 177.710938 113.3125 176.496094 C 113.492188 175.28125 113.703125 174.070312 113.941406 172.867188 C 114.179688 171.664062 114.449219 170.46875 114.746094 169.277344 C 115.046875 168.085938 115.375 166.902344 115.730469 165.730469 C 116.085938 164.554688 116.46875 163.390625 116.882812 162.234375 C 117.296875 161.078125 117.738281 159.933594 118.210938 158.796875 C 118.679688 157.664062 119.175781 156.542969 119.699219 155.433594 C 120.226562 154.324219 120.777344 153.226562 121.355469 152.144531 C 121.933594 151.0625 122.539062 149.996094 123.171875 148.941406 C 123.800781 147.890625 124.457031 146.851562 125.140625 145.832031 C 125.820312 144.8125 126.527344 143.808594 127.257812 142.824219 C 127.992188 141.835938 128.746094 140.871094 129.523438 139.921875 C 130.304688 138.972656 131.105469 138.042969 131.929688 137.132812 C 132.753906 136.222656 133.597656 135.335938 134.46875 134.46875 C 135.335938 133.597656 136.222656 132.753906 137.132812 131.929688 C 138.042969 131.105469 138.972656 130.304688 139.921875 129.523438 C 140.871094 128.746094 141.835938 127.992188 142.824219 127.257812 C 143.808594 126.527344 144.8125 125.820312 145.832031 125.140625 C 146.851562 124.457031 147.890625 123.800781 148.941406 123.171875 C 149.996094 122.539062 151.0625 121.933594 152.144531 121.355469 C 153.226562 120.777344 154.324219 120.226562 155.433594 119.699219 C 156.542969 119.175781 157.664062 118.679688 158.796875 118.210938 C 159.933594 117.738281 161.078125 117.296875 162.234375 116.882812 C 163.390625 116.46875 164.554688 116.085938 165.730469 115.730469 C 166.902344 115.375 168.085938 115.046875 169.277344 114.746094 C 170.46875 114.449219 171.664062 114.179688 172.867188 113.941406 C 174.070312 113.703125 175.28125 113.492188 176.496094 113.3125 C 177.710938 113.132812 178.925781 112.980469 180.148438 112.859375 C 181.371094 112.742188 182.59375 112.652344 183.820312 112.589844 C 185.046875 112.53125 186.273438 112.5 187.5 112.5 C 188.726562 112.5 189.953125 112.53125 191.179688 112.589844 C 192.40625 112.652344 193.628906 112.742188 194.851562 112.859375 C 196.074219 112.980469 197.289062 113.132812 198.503906 113.3125 C 199.71875 113.492188 200.929688 113.703125 202.132812 113.941406 C 203.335938 114.179688 204.53125 114.449219 205.722656 114.746094 C 206.914062 115.046875 208.097656 115.375 209.269531 115.730469 C 210.445312 116.085938 211.609375 116.46875 212.765625 116.882812 C 213.921875 117.296875 215.066406 117.738281 216.203125 118.210938 C 217.335938 118.679688 218.457031 119.175781 219.566406 119.699219 C 220.675781 120.226562 221.773438 120.777344 222.855469 121.355469 C 223.9375 121.933594 225.003906 122.539062 226.058594 123.171875 C 227.109375 123.800781 228.148438 124.457031 229.167969 125.140625 C 230.1875 125.820312 231.191406 126.527344 232.175781 127.257812 C 233.164062 127.992188 234.128906 128.746094 235.078125 129.523438 C 236.027344 130.304688 236.957031 131.105469 237.867188 131.929688 C 238.777344 132.753906 239.664062 133.597656 240.53125 134.46875 C 241.402344 135.335938 242.246094 136.222656 243.070312 137.132812 C 243.894531 138.042969 244.695312 138.972656 245.476562 139.921875 C 246.253906 140.871094 247.007812 141.835938 247.742188 142.824219 C 248.472656 143.808594 249.179688 144.8125 249.859375 145.832031 C 250.542969 146.851562 251.199219 147.890625 251.828125 148.941406 C 252.460938 149.996094 253.066406 151.0625 253.644531 152.144531 C 254.222656 153.226562 254.773438 154.324219 255.300781 155.433594 C 255.824219 156.542969 256.320312 157.664062 256.789062 158.796875 C 257.261719 159.933594 257.703125 161.078125 258.117188 162.234375 C 258.53125 163.390625 258.914062 164.554688 259.269531 165.730469 C 259.625 166.902344 259.953125 168.085938 260.253906 169.277344 C 260.550781 170.46875 260.820312 171.664062 261.058594 172.867188 C 261.296875 174.070312 261.507812 175.28125 261.6875 176.496094 C 261.867188 177.710938 262.019531 178.925781 262.140625 180.148438 C 262.257812 181.371094 262.347656 182.59375 262.410156 183.820312 C 262.46875 185.046875 262.5 186.273438 262.5 187.5 Z M 262.5 187.5 " fill-opacity="1" fill-rule="nonzero"/></g><path fill="#ffffff" d="M 187.5 255.347656 C 150.054688 255.347656 119.652344 224.945312 119.652344 187.5 C 119.652344 150.054688 150.054688 119.652344 187.5 119.652344 C 224.945312 119.652344 255.347656 150.054688 255.347656 187.5 C 255.347656 224.945312 224.945312 255.347656 187.5 255.347656 Z M 187.5 121.332031 C 150.949219 121.332031 121.332031 150.949219 121.332031 187.5 C 121.332031 224.050781 151.0625 253.667969 187.5 253.667969 C 224.050781 253.667969 253.667969 223.9375 253.667969 187.5 C 253.667969 150.949219 224.050781 121.332031 187.5 121.332031 Z M 187.5 121.332031 " fill-opacity="1" fill-rule="nonzero"/></svg>