<svg xmlns="http://www.w3.org/2000/svg" xmlns:xlink="http://www.w3.org/1999/xlink" width="500" zoomAndPan="magnify" viewBox="0 0 375 374.999991" height="500" preserveAspectRatio="xMidYMid meet" version="1.0"><defs><clipPath id="156edd98ff"><path d="M 138 149 L 375 149 L 375 375 L 138 375 Z M 138 149 " clip-rule="nonzero"/></clipPath><clipPath id="89ab966e2c"><path d="M 271.207031 547.367188 L 138.625 414.785156 L 403.789062 149.617188 L 536.371094 282.203125 Z M 271.207031 547.367188 " clip-rule="nonzero"/></clipPath><clipPath id="dabc00056e"><path d="M 0.480469 0.519531 L 237 0.519531 L 237 226 L 0.480469 226 Z M 0.480469 0.519531 " clip-rule="nonzero"/></clipPath><clipPath id="dbefb82595"><path d="M 133.207031 398.367188 L 0.625 265.785156 L 265.789062 0.617188 L 398.371094 133.203125 Z M 133.207031 398.367188 " clip-rule="nonzero"/></clipPath><clipPath id="25af47e350"><rect x="0" width="237" y="0" height="226"/></clipPath><clipPath id="d1d83f5193"><path d="M 138 0 L 375 0 L 375 226 L 138 226 Z M 138 0 " clip-rule="nonzero"/></clipPath><clipPath id="b34a5dcf6f"><path d="M 536.371094 92.78125 L 403.789062 225.363281 L 138.625 -39.804688 L 271.207031 -172.386719 Z M 536.371094 92.78125 " clip-rule="nonzero"/></clipPath><clipPath id="085f187c18"><path d="M 0.480469 0 L 237 0 L 237 225.601562 L 0.480469 225.601562 Z M 0.480469 0 " clip-rule="nonzero"/></clipPath><clipPath id="68b119c351"><path d="M 398.371094 92.78125 L 265.789062 225.363281 L 0.625 -39.804688 L 133.207031 -172.386719 Z M 398.371094 92.78125 " clip-rule="nonzero"/></clipPath><clipPath id="9d883ccaaa"><rect x="0" width="237" y="0" height="226"/></clipPath></defs><rect x="-37.5" width="450" fill="#ffffff" y="-37.499999" height="449.999989" fill-opacity="1"/><rect x="-37.5" width="450" fill="#ffffff" y="-37.499999" height="449.999989" fill-opacity="1"/><g clip-path="url(#156edd98ff)"><g clip-path="url(#89ab966e2c)"><g transform="matrix(1, 0, 0, 1, 138, 149)"><g clip-path="url(#25af47e350)"><g clip-path="url(#dabc00056e)"><g clip-path="url(#dbefb82595)"><path fill="#000000" d="M 133.207031 398.367188 L 0.625 265.785156 L 265.789062 0.617188 L 398.371094 133.203125 Z M 133.207031 398.367188 " fill-opacity="1" fill-rule="nonzero"/></g></g></g></g></g></g><g clip-path="url(#d1d83f5193)"><g clip-path="url(#b34a5dcf6f)"><g transform="matrix(1, 0, 0, 1, 138, 0)"><g clip-path="url(#9d883ccaaa)"><g clip-path="url(#085f187c18)"><g clip-path="url(#68b119c351)"><path fill="#000000" d="M 398.371094 92.78125 L 265.789062 225.363281 L 0.625 -39.804688 L 133.207031 -172.386719 Z M 398.371094 92.78125 " fill-opacity="1" fill-rule="nonzero"/></g></g></g></g></g></g></svg>