<svg xmlns="http://www.w3.org/2000/svg" xmlns:xlink="http://www.w3.org/1999/xlink" width="500" zoomAndPan="magnify" viewBox="0 0 375 374.999991" height="500" preserveAspectRatio="xMidYMid meet" version="1.0"><defs><clipPath id="2ba8d053a3"><path d="M 0 138 L 226 138 L 226 375 L 0 375 Z M 0 138 " clip-rule="nonzero"/></clipPath><clipPath id="ac64d96054"><path d="M -172.371094 271.203125 L -39.789062 138.621094 L 225.375 403.785156 L 92.792969 536.367188 Z M -172.371094 271.203125 " clip-rule="nonzero"/></clipPath><clipPath id="45e637a2c5"><path d="M 0 0.480469 L 225.601562 0.480469 L 225.601562 237 L 0 237 Z M 0 0.480469 " clip-rule="nonzero"/></clipPath><clipPath id="8279894d74"><path d="M -172.371094 133.203125 L -39.789062 0.621094 L 225.375 265.785156 L 92.792969 398.367188 Z M -172.371094 133.203125 " clip-rule="nonzero"/></clipPath><clipPath id="04fd123439"><rect x="0" width="226" y="0" height="237"/></clipPath><clipPath id="aa2f83a536"><path d="M 149 138 L 375 138 L 375 375 L 149 375 Z M 149 138 " clip-rule="nonzero"/></clipPath><clipPath id="604a311184"><path d="M 282.214844 536.367188 L 149.632812 403.785156 L 414.796875 138.621094 L 547.378906 271.203125 Z M 282.214844 536.367188 " clip-rule="nonzero"/></clipPath><clipPath id="c58191cb3c"><path d="M 0.519531 0.480469 L 226 0.480469 L 226 237 L 0.519531 237 Z M 0.519531 0.480469 " clip-rule="nonzero"/></clipPath><clipPath id="f143067050"><path d="M 133.214844 398.367188 L 0.632812 265.785156 L 265.796875 0.621094 L 398.378906 133.203125 Z M 133.214844 398.367188 " clip-rule="nonzero"/></clipPath><clipPath id="004a3842af"><rect x="0" width="226" y="0" height="237"/></clipPath><clipPath id="b460a202fa"><path d="M 3 177.492188 L 371 177.492188 L 371 181.242188 L 3 181.242188 Z M 3 177.492188 " clip-rule="nonzero"/></clipPath></defs><rect x="-37.5" width="450" fill="#ffffff" y="-37.499999" height="449.999989" fill-opacity="1"/><rect x="-37.5" width="450" fill="#ffffff" y="-37.499999" height="449.999989" fill-opacity="1"/><g clip-path="url(#2ba8d053a3)"><g clip-path="url(#ac64d96054)"><g transform="matrix(1, 0, 0, 1, 0, 138)"><g clip-path="url(#04fd123439)"><g clip-path="url(#45e637a2c5)"><g clip-path="url(#8279894d74)"><path fill="#000000" d="M -172.371094 133.203125 L -39.789062 0.621094 L 225.375 265.785156 L 92.792969 398.367188 Z M -172.371094 133.203125 " fill-opacity="1" fill-rule="nonzero"/></g></g></g></g></g></g><g clip-path="url(#aa2f83a536)"><g clip-path="url(#604a311184)"><g transform="matrix(1, 0, 0, 1, 149, 138)"><g clip-path="url(#004a3842af)"><g clip-path="url(#c58191cb3c)"><g clip-path="url(#f143067050)"><path fill="#000000" d="M 133.214844 398.367188 L 0.632812 265.785156 L 265.796875 0.621094 L 398.378906 133.203125 Z M 133.214844 398.367188 " fill-opacity="1" fill-rule="nonzero"/></g></g></g></g></g></g><g clip-path="url(#b460a202fa)"><path fill="#000000" d="M 3.351562 177.507812 L 370.269531 177.507812 C 370.367188 177.839844 370.628906 178.1875 370.648438 178.292969 C 370.71875 178.636719 370.417969 179.003906 370.507812 179.316406 C 370.734375 180.105469 370.578125 180.128906 370.074219 180.742188 C 369.933594 180.914062 369.890625 181.078125 369.917969 181.226562 L 3.578125 181.226562 C 3.519531 181.171875 3.46875 181.113281 3.421875 181.050781 C 3.160156 180.710938 3.226562 180.375 3.398438 180.148438 C 3.742188 179.691406 3.789062 179.617188 3.480469 179.128906 C 3.207031 178.695312 4.097656 178.402344 3.574219 177.835938 C 3.554688 177.8125 3.425781 177.671875 3.351562 177.507812 Z M 3.351562 177.507812 " fill-opacity="1" fill-rule="evenodd"/></g></svg>